<?xml version="1.0" encoding="utf-8"?>
<!-- Generator: Adobe Illustrator 26.2.1, SVG Export Plug-In . SVG Version: 6.00 Build 0)  -->
<!DOCTYPE svg PUBLIC "-//W3C//DTD SVG 1.1//EN" "http://www.w3.org/Graphics/SVG/1.1/DTD/svg11.dtd" [
	<!ENTITY ns_extend "http://ns.adobe.com/Extensibility/1.0/">
	<!ENTITY ns_ai "http://ns.adobe.com/AdobeIllustrator/10.0/">
	<!ENTITY ns_graphs "http://ns.adobe.com/Graphs/1.0/">
	<!ENTITY ns_vars "http://ns.adobe.com/Variables/1.0/">
	<!ENTITY ns_imrep "http://ns.adobe.com/ImageReplacement/1.0/">
	<!ENTITY ns_sfw "http://ns.adobe.com/SaveForWeb/1.0/">
	<!ENTITY ns_custom "http://ns.adobe.com/GenericCustomNamespace/1.0/">
	<!ENTITY ns_adobe_xpath "http://ns.adobe.com/XPath/1.0/">
]>
<svg version="1.1" xmlns:x="&ns_extend;" xmlns:i="&ns_ai;" xmlns:graph="&ns_graphs;"
	 xmlns="http://www.w3.org/2000/svg" xmlns:xlink="http://www.w3.org/1999/xlink" x="0px" y="0px" viewBox="0 0 4368 896"
	 style="enable-background:new 0 0 4368 896;" xml:space="preserve">
<style type="text/css">
	.st0{fill:#123C6B;}
</style>
<metadata>
	<sfw  xmlns="&ns_sfw;">
		<slices></slices>
		<sliceSourceBounds  bottomLeftOrigin="true" height="744.9" width="4257.2" x="49.4" y="74.5"></sliceSourceBounds>
	</sfw>
</metadata>
<g id="Layer_1">
	<g>
		<g>
			<path class="st0" d="M3081.1,92.4c1.4-8.4,9.5-14.8,17.9-14.8c3.8,0,7.8-0.3,11.5,1.1c6,2.1,11.1,7.8,11.1,14.3
				c0.5,39.9,0,79.8,0.3,119.6c12.4-5.4,28.5-37.2,85.2-37.1c19.7-0.5,44.3,7.2,62.5,20.9c19.3,15.1,33,36.8,39.4,60.2
				c1.8,8.1,3.7,16.1,4.6,24.4c0.2,11.8,0.9,23.7-1.6,35.2c-3,19.5-11.5,38.2-24.6,53c-4.6,5.7-10,10.8-15.4,15.8
				c-15.7,13.6-35.8,21.1-56.2,24c-11.5,1.8-23.1,2.7-34.7,2.4c-15.8,0-69.5,0-86.1-1.1c-4-0.6-8.6-1.6-10.9-5.3
				c-5.4-8.5-4.3-38.9-4.4-46C3079.6,82.5,3078.9,105.9,3081.1,92.4z M3153.8,225.8c-14.4,9.9-24.8,25.1-29.6,41.9
				c-3.7,14-3.6,28.8-1.5,43c4.4,25.3,21.9,49,46.6,57.6c22.4,7,43.8,4.7,57.8-1.5c21.8-8.6,41.6-29.9,45.5-63.1
				c0.1-11.8,1.2-23.9-2.5-35.4c-6.2-19.1-18.4-37.3-36.7-46.5C3211.6,208.6,3177,209.9,3153.8,225.8z"/>
		</g>
		<g>
			<path class="st0" d="M3397.5,83.5c6-6.5,15.8-6.9,23.9-5.1c4.1,0.8,7.7,3.5,9.9,7.1c2.7,4,2.1,9,2.9,13.5
				c0.3,37.2,0.1,74.3,0.2,111.5c5-1.4,8.6-5.3,12.2-8.8c7-6.1,14.9-11.2,23.1-15.6c8.9-3.8,17.9-7.7,27.6-9
				c21.6-3.8,44.4-1.5,64.5,7.5c10.8,4.7,20.5,11.6,29,19.6c13.6,14,23.9,31.3,29.4,50c2.3,8.7,3.7,17.7,5,26.6
				c1.9,24.6-1.6,50.3-14.2,71.8c-4.5,8-10.4,15-16.4,21.8c-5.2,5.2-10.2,10.7-16.3,14.9c-15.6,10.7-33.9,17.5-52.7,19.7
				c-10.7,2.1-21.7,1.4-32.5,1.6c-25.3,0-50.7,0-76-0.2c-26.4-0.6-22.4-6.3-25.4-32.5c0-91.7-0.2-183.4,0.1-275.1
				C3392.6,96.3,3392.2,88.5,3397.5,83.5z M3495.4,214.1c-14.3,2-28.2,8.5-38.4,18.9c-14.2,13.4-23,32.5-23.7,52
				c-0.6,4.3-0.9,8.7-0.1,13c0.2,28.1,16.8,55.9,42.4,68.1c9.9,4.3,20.6,7.5,31.5,7.2c11.8-1.3,23.9-2.6,34.8-7.8
				c15.8-7.3,29-20.3,36-36.4c9.5-22.1,10.2-48.1,0.5-70.2c-6.8-15.8-18.5-29.8-33.9-37.6C3526.4,211,3502,213,3495.4,214.1z"/>
		</g>
		<path class="st0" d="M78.2,79.6c3.7,2.6,6.3,6.6,8.1,10.8c3.6,9.2,6,18.7,8.6,28.2c6.8,23.2,13.4,46.6,20.1,69.8
			c5.5,20.5,12,40.7,17.8,61.1c3.6,14,7.8,27.9,12.1,41.7c1.6,4.5,3.7,10,8.9,11.1c4.5,0.7,9.7,0,13.1-3.2c2.7-4,3.2-8.9,4.7-13.4
			c5.4-17.7,9.8-35.7,15-53.4c5.6-21.9,11.9-43.5,17.7-65.3c4-17,9.6-33.6,13.3-50.7c1.6-6.8,3.9-13.4,6.1-20.1
			c4.7-12.7,14.9-16.3,20.3-15.6c6.1,0.3,13.3,2.1,16.5,7.8c3.3,5,4.7,10.9,6.1,16.6c6.4,23.2,12.9,46.5,18.9,69.9
			c10.9,38.7,20.7,77.7,31.9,116.3c1.6,5,3.2,11.2,8.7,13.1c4,0.5,8.9,1.1,12.1-2c4.1-3.9,4.8-9.9,6.5-15c6.2-19.5,12-39,17.3-58.7
			c4.6-14.4,8.5-29,12.6-43.5c5-15.9,9.1-32,14-47.9c5.5-16.5,8.5-33.8,15.2-50c1.8-4.7,5.7-8.7,10.8-9.5c4.2-0.4,8.4-0.3,12.7-0.1
			c6.4,0.2,11.9,6.1,12.1,12.4c-1.1,17.9-7.3,34.8-12,51.9c-4.7,18.4-11.4,36.1-16.5,54.4c-5.5,16.8-9.7,34-15.3,50.7
			c-5.2,17.4-10.9,34.7-16,52.1c-5.3,20.2-12.1,40-18,60.1c-4.1,11.7-6.4,24.1-11.3,35.5c-10.1,19.6-27.4,14.6-32.5,11.5
			c-4.9-3.6-7.5-9.4-9.4-14.9c-3.4-11.2-6.4-22.5-9-34c-4.6-16.6-8.6-33.4-13.1-50c-5.2-17.7-8.8-35.9-14.1-53.6
			c-2.4-9.7-5.2-19.2-7.4-28.9c-1.5-6.6-4.1-12.9-5.5-19.5c-1.5-6.8-3.2-13.7-7.3-19.4c-2.2-2.8-13.2-5-17.9,3.2
			c-3.9,8.8-5.8,18.3-8.5,27.4c-3.2,10.4-5.3,21-8.5,31.4c-2,6.5-3.4,13.1-5.2,19.6c-6.6,27.4-14.2,54.5-21.4,81.8
			c-2.3,9.9-4.7,19.7-7.4,29.5c-2.3,7.9-4.5,16.2-9.5,22.9c-6.7,7.7-27,16.1-38.1-12.3c-9.5-30.6-19.3-61.2-27.9-92.1
			c-7.7-25.8-16.4-51.3-23.4-77.3c-5.3-16.8-10-33.9-15.6-50.6c-2.7-9.3-5.6-18.6-8.1-28c-3.8-13-8.4-25.8-10.9-39.1
			C46.9,74.5,68.4,73.7,78.2,79.6z"/>
		<path class="st0" d="M496,91.3c4.4-20.7,41.7-16.8,40.7,1.6c0.4,36.5-0.2,73,0.2,109.5c0.1,0,71.6-56.1,138.4-7.7
			c21.3,17.1,35.4,43.1,36.4,81.2c1.5,13,0.6,26,0.9,39c0,22.3-0.1,44.7-0.2,67c-1.2,10.9,1.9,23.6-14.9,26.4
			c-7.4,0.6-16.1,0.6-21.5-5.3c-5.7-5.1-5.2-18.9-5.3-28.1c-0.1-30,0-60-0.2-90c-1-6.8-0.6-13.8-2.2-20.5c-5-29.5-26.5-48-53.1-50.9
			c-34.2-1.1-67,8.3-76.2,40.9c-2.8,17.1-0.4,34.4-2.2,51.6c-0.2,29.3,0.1,58.7-0.2,88.1c0.1,5.4-3.7,10.1-8.5,12.1
			c-4.9,2.9-10.7,2.5-16.2,2.4c-17.3-0.6-16.2-16.4-16.6-34.5c-0.2-25.3-0.2-50.7-0.2-76c-1.1-11.3-0.4-22.7-0.6-34
			c-0.1-52.3-0.1-104.7,0-157C494.5,101.7,495.1,96.5,496,91.3z"/>
		<path class="st0" d="M1096.6,81.4c6.5,5.7,7.6,14.8,9.9,22.6c15.6,52.9,30.2,106.1,45.8,158.9c3,10.4,5.5,21,9.3,31.1
			c6.1,13.8,18.8,8.1,21.7,3.3c3.2-5.8,4.1-12.4,6-18.6c5.5-17.6,9.8-35.6,14.5-53.4c4.2-14.1,7.8-28.3,11.6-42.5
			c5.2-16.9,9-34.2,13.8-51.2c3.6-11.8,6.2-24,10.4-35.6c5.9-16.8,32.7-26,41.3,3.6c11.8,41.9,22.6,84,34.1,126
			c6.2,22.1,11.7,44.5,18.6,66.4c1.9,4.6,3.3,10.4,8.4,12.3c10.4,1,12.8-1.9,15.7-9.1c5.3-14,8.5-28.7,13.1-43
			c5.2-17.3,9.8-34.7,15.1-52c7-25.2,14.7-50.2,21.6-75.4c3.7-11.7,6.7-23.7,10.8-35.2c5.8-18,30.2-15.3,36-3.6
			c1.3,10.5-1.1,21-4,31.1c-6.8,22-13.4,44-19.6,66.1c-5.8,17.2-10.6,34.7-16.2,51.9c-6.6,23.2-13.7,46.3-20.7,69.4
			c-5.8,16.9-10.2,34.3-15.7,51.3c-4,12.4-7,25.1-12,37.1c-2.2,4.6-4.5,9.5-8.4,12.9c-4.4,3.5-23.6,6-30.2-5.8
			c-4.8-9-6.5-19.2-9.3-28.9c-6.3-22.7-11.5-45.7-17.7-68.5c-2.9-10.2-4.8-20.7-8.2-30.7c-5.7-21.7-10.7-43.6-17-65.1
			c-2.2-7.2-2.8-15.5-8.2-21.3c-2.8-3.2-7.5-1.9-11.3-1.9c-5.9,0.6-7.7,7.2-9.3,11.9c-5.2,19.1-9.9,38.4-15.4,57.4
			c-2.7,10.8-5.6,21.7-8.8,32.4c-8.3,34.3-17.6,68.2-26.4,102.4c-2.1,6.4-4.8,13.1-10,17.6c-5.3,4.4-22.8,5.9-28.4-2
			c-5.2-6.6-7-15.1-9.7-22.9c-4.2-12.2-7.1-24.7-11.3-36.8c-2.8-9.9-5.8-19.6-8.7-29.5c-7.4-22.6-13.2-45.6-20.5-68.2
			c-4.1-14.4-9.2-28.4-13.1-42.8c-9-32.6-20.5-64.5-28.6-97.4c-1.4-5.1-2-10.6-1-15.9C1068.2,73.6,1089.8,75.2,1096.6,81.4z"/>
		<g>
			<path class="st0" d="M2526.4,78.4c6.6,0.4,13-1.1,19.6-0.8c17.7-0.1,35.3,0,53,0c3-0.1,5.9,0.7,9,0.8
				c22.2-0.2,43.9,8.1,61.6,21.1c23.4,18.7,37.1,48.6,37,78.5c0.2,12.5-0.8,25.2-4.9,37.2c-2.9,8.6-7.5,16.6-12.7,23.9
				c-5.3,8.5-12.9,15.2-21.1,20.9c-4.2,3.3-8.9,6.3-12.2,10.5c-1.6,1.9-1.7,4.7-1,7c4.3,8.2,8.2,16.6,13.8,24.1
				c10.5,16.5,21,33,31.4,49.5c5.3,9.4,11.4,18.2,16.5,27.7c3.2,5.9,4.4,13.4,1.5,19.7c-1.5,3.5-4.5,6-7.6,7.9
				c-5,2.6-10.8,2.1-16.3,2.1c-3.8,0-7.3-1.9-9.8-4.6c-7.3-7.6-11.5-17.4-17.2-26.1c-10.4-16.1-20.6-32.2-30.4-48.6
				c-8-12.4-15.5-25.1-23.4-37.6c-2.1-3.4-4-7-7.1-9.6c-2.4-2.2-6-1.4-9-1.6c-8.7,0.3-17.4-0.2-26,0.8c-7.7,0.2-15.4-0.1-23.1,0.4
				c-3.4,0.6-4.3,4.2-4.4,7.1c-0.4,8.7,0,17.5-0.3,26.2c-0.9,5.6-0.6,11.3-0.7,17c-0.1,19-0.1,38-0.2,57c-0.5,4.4-0.3,9.4-3.5,12.9
				c-4.8,5.2-12.1,7-18.9,6.5c-5.7-0.6-12.1-1.6-15.8-6.4c-5.7-6.6-4.5-15.9-4.8-24c0.2-5.4-0.3-10.7-0.7-16c-0.2-76-0.1-152,0-228
				c-0.2-6,1-12,0.7-18c0.3-8.7-1-17.8,2.1-26.2c1.8-5.9,7.4-10.4,13.6-11.2C2518.8,78.4,2522.6,78.5,2526.4,78.4z M2543.8,119.3
				c-0.2,5.9-0.3,11.8-1,17.7c-0.2,19.7-0.1,39.3-0.1,59c0.1,13-0.6,26,1.2,38.9c0.9,3,4,4.6,6.8,5.4c6.8,0.5,13.6,0.1,20.4,0.2
				c13.7-0.1,27.5,0.7,41.1-1.9c18.1-1.6,35.8-11.4,45.3-27.1c5.6-10.2,8.6-21.9,8-33.6c-0.5-9.5-3.2-18.8-7.3-27.4
				c-5.5-11-14.7-20.2-25.8-25.6c-13.4-7.8-29.3-8.3-44.3-8.3c-8,0.2-16-0.6-23.8,0.7C2557.3,117.5,2550.5,117.6,2543.8,119.3z"/>
		</g>
		<path class="st0" d="M4097,80.9c7.4-4.3,16.8-4.4,24.7-1.2c5.6,2.2,9.1,8.2,8.9,14.2c0.3,30.4,0.2,60.8,0.2,91.2
			c0.1,5.4-0.6,10.9,0.9,16.2c8.5-4.1,15.3-11,23.9-15c10.3-4.7,21.1-8.8,32.4-9.8c12.5-1.4,25.2-1.8,37.7,0.1
			c19.3,3.3,37.6,12.3,51.4,26.3c17.8,17.1,26.5,41.8,28.1,66.1c0.1,6.7,1.4,13.3,1.2,20c0.3,32.7,0.2,65.4-0.1,98.1
			c-0.4,4.5-0.5,9.3-3,13.2c-3,4.7-8.7,7.7-14.3,7.4c-6.9,0-15.3,1.5-20.2-4.6c-5.6-5.1-4.2-34.5-4.4-43.1c0-22,0-44-0.1-66
			c-1.9-16.9,0-44.9-20-64.4c-11.4-9.5-25.7-15.2-40.4-16.4c-21-5.3-62.7,11.3-71,38.3c-2.1,11.4-1.1,23-1.4,34.5
			c-0.1,24-0.1,48-0.1,72c0,0.1-1,35.7-1,35.8c-1.4,4.4-2.8,9.6-7.2,11.8c-4.2,2.8-9.4,1.9-14.1,2.2c-4.5-0.2-9.5,0.7-13.3-2.2
			c-4.3-3.2-6.3-8.6-6.3-13.8c-1.3-89.6-1.1-57.9-0.8-64.7c0-60.1,0-120.1,0-180.2c1.8-24.3-1.1-52.2,2.3-58.6
			C4092.2,85.3,4094,82.4,4097,80.9z"/>
		<path class="st0" d="M2080.9,114.3c2.4-7.2,10.1-11.3,17.4-11.2c17.4,0.1,20.7,6.2,22,18.8c0.1,21.2,0.1,42.5,0.1,63.7
			c13.6,0.2,27.1-0.3,40.7,0c5.9,0.2,12.2,3.1,14.3,9.1c0.6,5.2,0.6,10.6-0.1,15.8c-1,6.1-7.6,9.3-13.3,9.1
			c-13.5,0.1-26.9,0.1-40.4,0.1c-1.5,3.1-1.4-1.2-1,98.3c-0.6,20.8,3.8,41.7,23.6,48.2c19.6,2.3,27.3-0.7,34.2,4.3
			c4.6,4.5,7.8,10.9,7.3,17.5c1.2,12.7-11.8,21.1-24.6,20.6c-14.2,0.5-28.9-1.2-41.7-7.7c-16.1-9.1-28.7-24.3-34.8-41.8
			c-5.4-15.1-6-31.3-5.9-47.2c-0.1-59.3-0.1-118.7,0-178C2078.6,127.4,2078.7,120.6,2080.9,114.3z"/>
		<path class="st0" d="M2788.8,176.4c3.3-1.5,6.9-0.1,10.3,0.5c6.9,1.9,13.8,6.9,15.1,14.3c0.6,5.6,0.1,11.2,0.2,16.8
			c0.1,25.7,0,51.3,0.3,77c0.9,7.9,0.4,15.8,0.9,23.7c1.1,6.6,0.4,13.3,2.4,19.8c1.9,9.7,7.7,18.1,14.1,25.3
			c5.6,5.9,12.6,10.2,19.9,13.4c9.4,2.9,19,5.7,28.9,6.1c11.2-1.3,22.7-2.7,33.1-7.4c7.8-3.1,14.7-8.2,20.8-13.9
			c5.1-4.8,8.5-11.1,11.1-17.5c1.5-3.6,1.3-7.6,1.4-11.5c1.2-12,0.4-24,0.6-36c0-30-0.1-60,0.1-90c-0.5-9,6.5-16.8,14.8-19.4
			c4.2-0.5,8.5-0.3,12.8,0c5.9,1,11,5.4,13.3,11c0.8,3.8,1.4,7.6,1.2,11.5c0.1,63.7,0,127.4,0,191.1c0,5.9-1.2,12.4-5.6,16.6
			c-4.3,2.8-9.8,2.9-14.7,3.7c-25.7,0.1-51.4,0.1-77.1,0.1c-12.9-0.1-25.9,0.7-38.6-1.7c-18.9-2.9-36.6-11.6-50.7-24.4
			c-19.1-18.4-28.9-44.9-30.2-71.1c-1.5-10.7-0.6-21.5-0.9-32.3c-0.1-26,0.1-52,0.1-78c0-5.9-0.2-12.4,3.1-17.6
			C2779,182,2783.6,178.4,2788.8,176.4z"/>
		<path class="st0" d="M3989.1,190.8c14.8,9.2,27.1,19.5,26.5,33.3c-0.6,8.5-9.4,14.2-17.4,14.4c-8.9-0.8-16.9-5.5-23.8-11
			c-8.4-5.4-17-10.9-26.9-13c-35.1-7.1-77.8,2.7-64.4,36.1c2.2,4.6,6.6,7.7,11.1,9.7c8.9,4.5,18.7,6.8,28.2,9.4
			c8.8,2.5,17.8,3.9,26.6,6.3c10.5,2.3,20.7,5.9,30.8,9.8c11,4.6,21.5,11.1,29.2,20.4c8.6,10.8,11.4,25.3,10.8,38.9
			c0.2,8.5-2.4,16.9-5.9,24.6c-4.7,10.1-12.5,18.4-21.4,24.9c-12.8,8.4-27.9,12.7-43,14.8c-19.2,4.1-49.5-1-49.6-1
			c-35.5-6.1-75.1-26.5-70.2-47.1c3.1-7.7,10.1-13.2,17.4-16.6c4.8-0.3,10.1-1.1,14.4,1.7c8.1,4.4,13.5,12.3,21.8,16.5
			c7.9,4.6,16.9,6.6,25.7,8.7c12.4,3.2,36.7,0.8,48.9-2.9c8.8-3.1,18.2-8.5,20.7-18.2c1.5-6.9,1.6-15.1-3.2-20.8
			c-5.2-6.2-12.1-10.8-19.7-13.6c-11.7-4.7-24.1-7.5-36.4-10.4c-10.3-2.9-20.9-4.7-30.9-8.5c-8.3-2.6-15.6-7.4-23-11.9
			c-29.5-20.5-32.2-54-15.2-78.9c5.7-7,12.4-13.5,20.5-17.7C3903.3,170.7,3953.3,170.2,3989.1,190.8z"/>
		<path class="st0" d="M1779.3,176.2c3.5-0.9,7.1-0.6,10.7-0.7c28.7-0.1,57.3-0.1,86,0c5.3,0.1,10.7-0.3,16,0.7
			c27.8,0.7,55.6,14,71.7,37c7.2,9.2,11.9,20.1,15.2,31.2c4.4,13.7,4.9,35.5,5.5,52.5c0.2,28.3,0,56.7,0,85
			c0.1,4.6-0.6,9.1-1.2,13.7c-0.7,5.8-5.8,10.1-11.1,11.7c-6.5,0.5-13,0.7-19.4-0.1c-5.2-2-9.6-7.4-9.1-13.2
			c-0.3-23-0.1-46-0.2-69.1c0-2.6-1-36.9-1-37c-1.4-9.2-1.3-18.6-3.4-27.7c-2.5-11-7.6-21.5-15.7-29.5c-9.7-9.6-22.8-15-36.2-17.2
			c-33.4-2.3-53.2,6.6-69.2,25.3c-9.7,12.9-7.5,17.8-8.4,54c-0.1,21.7-0.2,43.3-0.2,65c0.2,6.4-1,12.6-0.6,19
			c-0.1,6,0.3,12.1-0.4,18.2c-1.3,8.1-9.3,13.8-17.3,13.4c-6.4,0-13.8,0.8-19-3.6c-6.5-7.9-4-18.7-4.7-28.1
			c-0.9-7.3-0.6-14.6-0.6-21.9c-0.1-45.3-0.1-90.7,0-136c0.3-10.8-0.9-21.8,1.6-32.5C1769.4,181.2,1773.9,177.1,1779.3,176.2z"/>
		<path class="st0" d="M3750.4,196.1c0.3,61.3,0.3,122.6-0.1,183.9c-0.1,6.9,0.8,14.2-2,20.7c-2.9,3.8-7.8,5.6-12.3,6.6
			c-9.6,0.5-23.7,1.7-26-9.8c-1.9-9.4-1.4-19-1.5-28.5c-0.1-57-0.1-114,0.1-171C3709.7,171.8,3748.3,167.5,3750.4,196.1z"/>
		<g>
			<path class="st0" d="M1008,236.3c6.8,14.4,10.8,30,12.4,45.8c0.3,11.5,0.8,23.1-1.6,34.5c-4,24.3-15.8,47.5-33.9,64.5
				c-16.8,17-40.5,25.5-63.9,28.3c-9.8,1.9-19.8,1.5-29.6,1c-6.9-1.4-14.1-1.5-20.9-3.4c-18.4-4.6-35.4-14.3-49.3-27.1
				c-19.1-19.4-31.9-45.4-33.7-72.8c0.2-6.1-1.2-12.2-0.1-18.3c-0.5-24.6,7.2-49.5,22.3-69C855.6,156.7,967.2,158.7,1008,236.3z
				 M894.6,213.5c-7.3,0.8-14.8,1.9-21.4,5.2c-8.5,4.2-17.2,8.6-23.7,15.7c-4.8,4.6-8.2,10.4-11.7,16.1c-5.4,9.9-7.6,21.1-9.3,32.2
				c-2.7,12.1-1.8,44.1,22.6,70.2c38.3,37.6,130,29.9,128.2-70c-2.3-16.6-7.9-33.4-19.1-46.2c-9-11.1-22.2-17.9-35.7-21.8
				C914.8,212.4,904.5,212.1,894.6,213.5z"/>
		</g>
		<path class="st0" d="M2403.3,195.2c6.3,4.6,12.6,9.6,16.7,16.5c2.4,4.3,4,9.4,2.4,14.3c-1.9,11.8-18.3,14.7-28,9.8
			c-11.6-5.4-20.6-15.4-32.9-19.6c-16.9-6.6-48.7-5.9-65.8,5.7c-10.6,6-8.8,26.6-2.1,33.6c5.8,4.9,13.3,7.1,20.2,9.9
			c26.9,8.5,55.8,11.1,81.1,24.3c5.4,2.9,10.5,6.4,15.4,10.2c21.3,17,26.3,68.8-8.5,93c-10.8,8.2-24,12.5-37.1,15.2
			c-30.6,4.6-59.5,4.3-89.6-8.8c-10.6-4.1-20.8-9.5-29.4-16.9c-4.6-4.2-8.8-9.9-8.4-16.4c-0.1-12.4,7.3-22.6,27.8-21.5
			c7.4,2.8,12.5,9.1,18.6,13.8c28,21.1,83.6,17.8,98.8-0.8c5.5-7.1,5.1-17.2,1.8-25.2c-5.2-12.2-27-18.6-38.7-22.1
			c-7.6-2.3-15.4-3.6-23-5.7c-8.3-2.3-16.8-3.8-24.8-6.8c-26.5-9.1-46.9-24.1-50.9-51.7c-0.4-9-0.6-18.4,2.9-26.8
			c2.3-6.6,6.5-12.2,11.3-17.2c7.1-7.6,15.8-14,25.6-17.7C2323.3,170.4,2368.3,171.8,2403.3,195.2z"/>
	</g>
	<g>
		<path class="st0" d="M1185.6,804.6l138.5-190H1205l-2.8,17.8c-1,6.7-3.3,10-6.9,10c-2.9,0-4.4-1.4-4.4-4.1v-37.1h156.3v13.4
			l-138.5,190h123.6l2.8-17.8c1-6.7,3.3-10,6.9-10c2.9,0,4.4,1.4,4.4,4.1v37.1h-160.7V804.6z"/>
		<path class="st0" d="M1462.1,811.8c-10.9-6.4-19.3-15.6-25.1-27.5c-5.8-11.9-8.7-25.7-8.7-41.5c0-24.1,6.1-43.5,18.4-58.2
			c12.3-14.7,29.4-22,51.5-22c20,0,35.6,5.9,46.8,17.6c11.2,11.8,16.8,27.4,16.8,47c0,5.6-1.2,11.5-3.7,17.8h-112
			c0,20.6,5.1,36.5,15.4,47.6c10.3,11.1,23.4,16.7,39.5,16.7c15.8,0,29.5-4.3,41.2-12.8c0.4-0.2,1.1-0.7,2.2-1.4
			c1-0.7,2.1-1.1,3.1-1.1c1.5,0,2.7,0.6,3.7,1.7c1,1.1,1.6,2.5,1.6,4.2c0,1.7-0.7,3.3-2.2,4.8c-1.5,1.6-3.6,3.3-6.6,5.1
			c-12.3,7.7-26.8,11.5-43.7,11.5C1485.8,821.5,1473.1,818.3,1462.1,811.8z M1542.8,732.9c0.8-2.9,1.2-5.8,1.2-8.7
			c0-15.8-4.3-28-12.8-36.5c-8.5-8.5-19.6-12.8-33.1-12.8c-14.6,0-26.5,5.1-35.9,15.4c-9.4,10.3-14.7,24.5-15.9,42.6H1542.8z"/>
		<path class="st0" d="M1640.1,813.1c0-4.4,2.9-6.6,8.7-6.6h11.5V677.3h-16.2c-2.7,0-4.1-1.7-4.1-5c0-4.4,2.9-6.6,8.7-6.6h27.8v30.6
			h1.2c8.1-9.4,17-17.3,26.5-23.9c9.6-6.6,18.1-9.8,25.6-9.8c3.3,0,6,0.8,8,2.5c2,1.7,3,4,3,6.9c0,3.3-1,6.2-3.1,8.7
			c-21.2,0-41.2,9.9-59.9,29.6v95.8l16.2,2.8c2.5,0.4,4.3,1.1,5.3,2c1,0.9,1.6,2.2,1.6,3.9c0,2.1-1,3.1-3.1,3.1h-53.7
			C1641.4,818.1,1640.1,816.4,1640.1,813.1z"/>
		<path class="st0" d="M1817.9,800.1c-12.3-14.2-18.4-33.6-18.4-58.2c0-24.3,6.1-43.6,18.4-57.9c12.3-14.2,29.5-21.4,51.8-21.4
			c22,0,39.2,7.1,51.5,21.4c12.3,14.2,18.4,33.5,18.4,57.9c0,24.5-6.1,43.9-18.4,58.2c-12.3,14.2-29.4,21.4-51.5,21.4
			C1847.4,821.5,1830.2,814.4,1817.9,800.1z M1907.9,791.5c9.3-11.9,13.9-28.4,13.9-49.6c0-21-4.6-37.4-13.9-49.3
			c-9.3-11.9-22-17.8-38.2-17.8c-16.2,0-29,5.9-38.4,17.8s-14,28.3-14,49.3c0,21.2,4.7,37.8,14,49.6s22.2,17.8,38.4,17.8
			C1885.9,809.3,1898.7,803.4,1907.9,791.5z"/>
		<path class="st0" d="M2119.1,613.4h-15.9c-1.2,0-2.2-0.5-3-1.4c-0.7-0.9-1.1-2.2-1.1-3.9c0-4.6,2.9-6.9,8.7-6.9h52.4
			c2.1,0,3.1,1.1,3.1,3.4c0,1.7-0.7,3.1-2,4.4c-1.4,1.2-3.2,2-5.5,2.2l-17.5,2.5l51.2,172.8c1,3.3,1.9,6.9,2.5,10.8
			c0.6,3.9,1,6.4,1.2,7.6h1.9c0.2-1.2,0.6-3.8,1.2-7.6c0.6-3.8,1.4-7.4,2.2-10.8l54.9-185.3h14.4l57.7,185.3c1,3.3,1.9,6.9,2.5,10.8
			c0.6,3.9,0.9,6.4,0.9,7.6h1.9c0.2-1.2,0.6-3.8,1.2-7.6c0.6-3.8,1.5-7.4,2.5-10.8l48.7-173.2h-19.7c-1.5,0-2.5-0.5-3.3-1.4
			c-0.7-0.9-1.1-2.2-1.1-3.9c0-4.6,2.9-6.9,8.7-6.9h49.9c2.1,0,3.1,1.1,3.1,3.4c0,3.3-2.2,5.3-6.6,5.9l-15.9,3.1L2340,818.1h-24
			l-52.1-170.4c-0.8-3.3-1.6-7.2-2.3-11.7c-0.7-4.5-1.2-7.4-1.4-8.9h-1.6c-0.2,1.5-0.7,4.4-1.4,8.9c-0.7,4.5-1.6,8.4-2.7,11.7
			l-50.2,170.4h-23.7L2119.1,613.4z"/>
		<path class="st0" d="M2489.2,810.4c-9.3-7.4-13.9-17.7-13.9-31c0-14.1,5-24.7,15-31.7c10-7,23.3-11.7,39.9-14.2l47.4-7.2v-15
			c0-10.6-3.3-19.3-10-26.2c-6.7-6.9-15.9-10.3-27.8-10.3c-6.7,0-14.2,1.2-22.8,3.7c-8.5,2.5-15.6,5.5-21.2,9l-2.5,14.4
			c-0.8,5-2.9,7.5-6.2,7.5c-2.5,0-3.7-1.1-3.7-3.4v-25.9c8.1-5,17.5-9.2,28.2-12.5c10.7-3.3,21-5,30.7-5c15.2,0,27.8,4.3,37.8,12.9
			c10,8.6,15,20.5,15,35.7v95.2l12.2,2.5c2.7,0.4,4.6,1.1,5.6,2c1,0.9,1.6,2.2,1.6,3.9c0,2.1-0.9,3.1-2.8,3.1h-33.4v-24h-1.2
			c-5.8,8.3-13.3,15-22.3,20c-9,5-19.7,7.5-32,7.5C2509.7,821.5,2498.5,817.8,2489.2,810.4z M2551.8,803.1
			c7.7-3.9,13.9-9.3,18.7-15.9c4.8-6.7,7.2-14,7.2-22.2v-26.8l-42.7,6.6c-13.1,2.1-23.3,5.7-30.6,10.9c-7.3,5.2-10.9,12.7-10.9,22.5
			c0,10.2,3.2,17.9,9.7,23.1c6.4,5.2,14.8,7.8,25,7.8C2536.2,809,2544.1,807,2551.8,803.1z"/>
		<path class="st0" d="M2709.5,817.1c-10.5-2.9-18.6-6.9-24.2-11.9v-26.5c0-2.3,1.2-3.4,3.7-3.4c2.9,0,4.9,2.6,5.9,7.8l2.5,14.7
			c4.4,3.7,10.5,6.6,18.4,8.4c7.9,1.9,15.6,2.8,23.1,2.8c11.4,0,21-2,28.5-5.9c7.6-3.9,11.4-10.4,11.4-19.3c0-6.2-1.4-11.3-4.2-15.1
			c-2.8-3.8-7.1-7.3-12.9-10.3c-5.8-3-14.9-6.9-27.1-11.7c-16.2-6.4-28.2-13.1-36-19.8c-7.8-6.8-11.7-15.4-11.7-26.1
			c0-12.7,5.1-22.2,15.3-28.5c10.2-6.3,22.6-9.5,37.1-9.5c9.6,0,19.2,1.8,29,5.5c9.8,3.6,17.2,8,22.2,12.9V707
			c0,0.8-0.3,1.6-0.9,2.2s-1.6,0.9-2.8,0.9c-1.7,0-3-0.6-3.9-1.7c-0.9-1.1-1.6-3.1-2-5.8l-2.5-15.3c-4-3.7-9.5-6.7-16.5-8.9
			c-7.1-2.2-14.1-3.3-21.2-3.3c-10,0-18.4,1.9-25.3,5.8c-6.9,3.9-10.3,9.9-10.3,18.3c0,5.6,1.6,10.3,4.8,14c3.2,3.7,7.7,7.1,13.4,10
			c5.7,2.9,14.8,7,27.3,12.2c16.8,6.9,28.8,13.6,35.9,20.3c7.1,6.7,10.6,15.8,10.6,27.5c0,13.1-5.5,22.8-16.4,29
			c-10.9,6.2-24.5,9.4-40.7,9.4C2730.1,821.5,2720,820,2709.5,817.1z"/>
		<path class="st0" d="M2903.2,812c-6.9-6.3-10.3-15.3-10.3-27V678.9h-21.2c-1,0-2-0.5-2.8-1.6c-0.8-1-1.2-2.3-1.2-3.7
			c0-2.3,0.8-4.1,2.3-5.5c1.6-1.4,3.7-2,6.4-2h16.5l3.4-32.1h14v32.1h47.4c2.1,0,3.1,1.1,3.1,3.4c0,1.9-0.9,3.2-2.7,4.1
			c-1.8,0.8-4.5,1.5-8.3,1.9l-39.6,3.4v107.3c0,7.5,1.9,13.2,5.8,17c3.8,3.9,9.1,5.8,15.8,5.8c4.6,0,8.6-0.7,12.2-2
			c3.5-1.4,6.9-3.5,10-6.4c1.9-1.9,3.5-2.8,5-2.8c1.5,0,2.7,0.5,3.6,1.4s1.4,2.3,1.4,4.2c0,1.5-0.7,3.1-2.2,5
			c-1.5,1.9-3.4,3.6-5.9,5.3c-8.1,5.2-17.1,7.8-26.8,7.8C2918.7,821.5,2910,818.3,2903.2,812z"/>
		<path class="st0" d="M3069.3,811.8c-10.9-6.4-19.3-15.6-25.1-27.5c-5.8-11.9-8.7-25.7-8.7-41.5c0-24.1,6.1-43.5,18.4-58.2
			c12.3-14.7,29.4-22,51.5-22c20,0,35.6,5.9,46.8,17.6c11.2,11.8,16.8,27.4,16.8,47c0,5.6-1.2,11.5-3.7,17.8h-112
			c0,20.6,5.1,36.5,15.4,47.6c10.3,11.1,23.4,16.7,39.5,16.7c15.8,0,29.5-4.3,41.2-12.8c0.4-0.2,1.1-0.7,2.2-1.4
			c1-0.7,2.1-1.1,3.1-1.1c1.5,0,2.7,0.6,3.7,1.7c1,1.1,1.6,2.5,1.6,4.2c0,1.7-0.7,3.3-2.2,4.8c-1.5,1.6-3.6,3.3-6.6,5.1
			c-12.3,7.7-26.8,11.5-43.7,11.5C3092.9,821.5,3080.2,818.3,3069.3,811.8z M3149.9,732.9c0.8-2.9,1.2-5.8,1.2-8.7
			c0-15.8-4.3-28-12.8-36.5c-8.5-8.5-19.6-12.8-33.1-12.8c-14.6,0-26.5,5.1-35.9,15.4c-9.4,10.3-14.7,24.5-15.9,42.6H3149.9z"/>
	</g>
</g>
<g id="Capa_2">
	<g>
		<g>
			<path class="st0" d="M1569,403.7c-6.8,0-13.6-1.9-20.4-1.2c-1.7,4-2.4,9.9-7.6,10.8c-5.4,0.1-11,0.9-16.1-1.2
				c-3.8-1.9-4.2-6.7-5.3-10.3c-1.5-8.5-7.6-15.8-7.1-24.7c-0.2-6.8,0.2-22.4,0.2-22.4l-13.2-0.1l0.1,58.1l-37.1-0.2
				c0,0,0.1-73.7-0.1-110.6c0.2-4-3.1-5.7-6.3-7.2c-0.9-0.4-1.6-1.2-1.9-2.2c-0.3-1-0.2-2,0.2-2.9c0.7-1.3,1.6-2.5,2.6-3.6
				c11.5-11.9,23.6-23,35.3-34.7c20.7-20.7,41.1-41.6,61.7-62.3c4.2-3.7,9.2-7.8,15-7.6c5.8-0.3,10.8,3.8,15,7.6
				c20.6,20.8,41,41.7,61.7,62.3c11.7,11.7,23.8,22.9,35.3,34.7c1.1,1,2,2.3,2.6,3.6c0.5,0.9,0.6,1.9,0.2,2.9c-0.3,1-1,1.7-1.9,2.2
				c-3.2,1.5-6.5,3.2-6.3,7.2c-0.2,36.9-0.1,110.6-0.1,110.6l-37.1,0.2l0.1-58.1l-13.2,0.1c0,0,0.4,15.7,0.2,22.4
				c0.5,8.9-5.6,16.2-7.1,24.7c-1.1,3.6-1.5,8.5-5.3,10.3c-5.1,2.1-10.7,1.3-16.1,1.2c-5.2-0.9-5.9-6.8-7.6-10.8
				C1582.6,401.8,1575.8,403.7,1569,403.7z M1569,189.9c-5.2-1.3-12.7,8.1-16,11.1c-26.4,27.9-53.3,52.6-79.8,80.4
				c-3.1,2.5-2.7,7.1-2.7,11.1c-0.1,19.3-0.2-12.4,0.5,113l20,0l0.5-116.6c0,0,63.8-0.4,77.6-0.4c13.8,0,77.6,0.4,77.6,0.4
				l0.5,116.6l20,0c0.7-125.5,0.6-93.8,0.5-113c0-4,0.4-8.7-2.7-11.1c-26.5-27.8-53.4-52.5-79.8-80.4
				C1581.7,198,1574.2,188.6,1569,189.9z M1569,297.4c-35.2,0-70.5,0.1-70.5,0.1s-0.1,14.2,0.2,20.8c23.4,0.1,46.9,0.1,70.3,0.1
				c23.4,0,46.9,0,70.3-0.1c0.3-6.6,0.2-20.8,0.2-20.8S1604.2,297.4,1569,297.4z M1569,325.5c-23.2,0-69.5,0-69.5,0l-0.5,21.8
				c0,0,46.5,0,69.9,0c23.4,0,69.9,0,69.9,0l-0.5-21.8C1638.5,325.6,1592.2,325.5,1569,325.5z M1569,354.8c-21.1,0-46.5-0.1-49.3,0
				c0,2.7,0.1,4.6,0,6.2c8.6,1.4,17.4,4,22.3,9c2.3,2.2,2.2,8.4-2.1,7.6c-4.3-1.5-7.6-4.3-12-5.6c-2.8-0.5-5.3-0.7-8.2-0.6
				c0.2,3.6-0.6,7.3,0.7,10.7c1.1,4.8,5.2,8.9,10.2,9.4c8.7,0.2,17.3,1.2,25.8,2.9c4.1,0.5,8.3,0.6,12.5,0.5c4.2,0,8.3,0,12.5-0.5
				c8.5-1.6,17.2-2.6,25.8-2.9c5-0.5,9.1-4.5,10.2-9.4c1.3-3.4,0.6-7.1,0.7-10.7c-2.9-0.1-5.3,0.2-8.2,0.6c-4.4,1.3-7.7,4.1-12,5.6
				c-4.2,0.8-4.4-5.4-2.1-7.6c5-5,13.8-7.6,22.3-9c-0.1-1.6,0-3.4,0-6.2C1615.5,354.7,1590.1,354.8,1569,354.8z M1533.5,398.4
				c-1-0.1-2.1,0.3-2.8,1c-0.8,0.7-1.2,1.7-1.2,2.7c0,0,0,0,0,0c0,1.3,0.7,2.6,1.9,3.3c1.4,0.8,3,1.5,4.7,1.2c3.3,0,3.6-5.3,1-6.7
				C1536.1,398.8,1534.8,398.5,1533.5,398.4z M1600.9,399.9c-2.6,1.3-2.3,6.7,1,6.7c1.7,0.3,3.3-0.3,4.7-1.2
				c1.2-0.7,1.9-1.9,1.9-3.3c0,0,0,0,0,0c0-1-0.4-2-1.2-2.7c-0.8-0.7-1.8-1.1-2.8-1C1603.2,398.5,1601.9,398.8,1600.9,399.9z"/>
		</g>
		<path class="st0" d="M1569,375.5c-3.1,0-6.1-0.1-9.2-0.1c-1.4,0-2.7-0.8-3.4-2c-0.1-0.2-0.2-0.4-0.3-0.5c-0.5-1-0.6-2.2-0.2-3.2
			s1.2-1.9,2.3-2.2c2.1-0.8,4.5-0.8,6.7-0.7c1.3,0,2.7,0,4,0c1.4,0,2.7,0.1,4,0c2.2-0.1,4.6,0,6.7,0.7c1.1,0.4,1.9,1.2,2.3,2.2
			c0.4,1,0.3,2.2-0.2,3.2c-0.1,0.2-0.2,0.4-0.3,0.5c-0.7,1.2-2,2-3.4,2C1575.1,375.4,1572.1,375.4,1569,375.5z"/>
	</g>
</g>
</svg>
